<mxfile host="Electron" agent="Mozilla/5.0 (Windows NT 10.0; Win64; x64) AppleWebKit/537.36 (KHTML, like Gecko) draw.io/27.0.5 Chrome/134.0.6998.205 Electron/35.3.0 Safari/537.36" version="27.0.5">
  <diagram name="PÃ¡gina-1" id="MQTwZCBMw6hJ6Q97TubH">
    <mxGraphModel dx="1426" dy="841" grid="1" gridSize="10" guides="1" tooltips="1" connect="1" arrows="1" fold="1" page="1" pageScale="1" pageWidth="1169" pageHeight="827" math="0" shadow="0">
      <root>
        <mxCell id="0" />
        <mxCell id="1" parent="0" />
        <mxCell id="8B-uYey3UF3kqIQ4_H9d-1" value="" style="shape=umlLifeline;perimeter=lifelinePerimeter;whiteSpace=wrap;html=1;container=1;dropTarget=0;collapsible=0;recursiveResize=0;outlineConnect=0;portConstraint=eastwest;newEdgeStyle={&quot;curved&quot;:0,&quot;rounded&quot;:0};participant=umlActor;" parent="1" vertex="1">
          <mxGeometry x="30" y="50" width="20" height="410" as="geometry" />
        </mxCell>
        <mxCell id="8B-uYey3UF3kqIQ4_H9d-2" value="" style="html=1;points=[[0,0,0,0,5],[0,1,0,0,-5],[1,0,0,0,5],[1,1,0,0,-5]];perimeter=orthogonalPerimeter;outlineConnect=0;targetShapes=umlLifeline;portConstraint=eastwest;newEdgeStyle={&quot;curved&quot;:0,&quot;rounded&quot;:0};" parent="8B-uYey3UF3kqIQ4_H9d-1" vertex="1">
          <mxGeometry x="5" y="55" width="10" height="25" as="geometry" />
        </mxCell>
        <mxCell id="8B-uYey3UF3kqIQ4_H9d-43" value="" style="html=1;points=[[0,0,0,0,5],[0,1,0,0,-5],[1,0,0,0,5],[1,1,0,0,-5]];perimeter=orthogonalPerimeter;outlineConnect=0;targetShapes=umlLifeline;portConstraint=eastwest;newEdgeStyle={&quot;curved&quot;:0,&quot;rounded&quot;:0};" parent="8B-uYey3UF3kqIQ4_H9d-1" vertex="1">
          <mxGeometry x="5" y="150" width="10" height="200" as="geometry" />
        </mxCell>
        <mxCell id="8B-uYey3UF3kqIQ4_H9d-8" value="Administrador&lt;div&gt;de contratos&lt;/div&gt;" style="text;html=1;align=center;verticalAlign=middle;whiteSpace=wrap;rounded=0;" parent="1" vertex="1">
          <mxGeometry x="10" y="10" width="60" height="30" as="geometry" />
        </mxCell>
        <mxCell id="8B-uYey3UF3kqIQ4_H9d-9" value="" style="shape=umlLifeline;perimeter=lifelinePerimeter;whiteSpace=wrap;html=1;container=1;dropTarget=0;collapsible=0;recursiveResize=0;outlineConnect=0;portConstraint=eastwest;newEdgeStyle={&quot;curved&quot;:0,&quot;rounded&quot;:0};participant=umlBoundary;" parent="1" vertex="1">
          <mxGeometry x="161" y="50" width="50" height="410" as="geometry" />
        </mxCell>
        <mxCell id="8B-uYey3UF3kqIQ4_H9d-41" value="" style="html=1;points=[[0,0,0,0,5],[0,1,0,0,-5],[1,0,0,0,5],[1,1,0,0,-5]];perimeter=orthogonalPerimeter;outlineConnect=0;targetShapes=umlLifeline;portConstraint=eastwest;newEdgeStyle={&quot;curved&quot;:0,&quot;rounded&quot;:0};" parent="8B-uYey3UF3kqIQ4_H9d-9" vertex="1">
          <mxGeometry x="19" y="70" width="10" height="40" as="geometry" />
        </mxCell>
        <mxCell id="8B-uYey3UF3kqIQ4_H9d-44" value="" style="html=1;points=[[0,0,0,0,5],[0,1,0,0,-5],[1,0,0,0,5],[1,1,0,0,-5]];perimeter=orthogonalPerimeter;outlineConnect=0;targetShapes=umlLifeline;portConstraint=eastwest;newEdgeStyle={&quot;curved&quot;:0,&quot;rounded&quot;:0};" parent="8B-uYey3UF3kqIQ4_H9d-9" vertex="1">
          <mxGeometry x="19" y="130" width="10" height="90" as="geometry" />
        </mxCell>
        <mxCell id="8B-uYey3UF3kqIQ4_H9d-60" value="" style="html=1;points=[[0,0,0,0,5],[0,1,0,0,-5],[1,0,0,0,5],[1,1,0,0,-5]];perimeter=orthogonalPerimeter;outlineConnect=0;targetShapes=umlLifeline;portConstraint=eastwest;newEdgeStyle={&quot;curved&quot;:0,&quot;rounded&quot;:0};" parent="8B-uYey3UF3kqIQ4_H9d-9" vertex="1">
          <mxGeometry x="19" y="230" width="10" height="130" as="geometry" />
        </mxCell>
        <mxCell id="8B-uYey3UF3kqIQ4_H9d-15" value="IContratos" style="text;html=1;align=center;verticalAlign=middle;whiteSpace=wrap;rounded=0;" parent="1" vertex="1">
          <mxGeometry x="156" y="10" width="60" height="30" as="geometry" />
        </mxCell>
        <mxCell id="8B-uYey3UF3kqIQ4_H9d-16" value="" style="shape=umlLifeline;perimeter=lifelinePerimeter;whiteSpace=wrap;html=1;container=1;dropTarget=0;collapsible=0;recursiveResize=0;outlineConnect=0;portConstraint=eastwest;newEdgeStyle={&quot;curved&quot;:0,&quot;rounded&quot;:0};participant=umlControl;" parent="1" vertex="1">
          <mxGeometry x="312" y="50" width="40" height="410" as="geometry" />
        </mxCell>
        <mxCell id="8B-uYey3UF3kqIQ4_H9d-48" value="" style="html=1;points=[[0,0,0,0,5],[0,1,0,0,-5],[1,0,0,0,5],[1,1,0,0,-5]];perimeter=orthogonalPerimeter;outlineConnect=0;targetShapes=umlLifeline;portConstraint=eastwest;newEdgeStyle={&quot;curved&quot;:0,&quot;rounded&quot;:0};" parent="8B-uYey3UF3kqIQ4_H9d-16" vertex="1">
          <mxGeometry x="15" y="80" width="10" height="120" as="geometry" />
        </mxCell>
        <mxCell id="8B-uYey3UF3kqIQ4_H9d-65" value="" style="html=1;points=[[0,0,0,0,5],[0,1,0,0,-5],[1,0,0,0,5],[1,1,0,0,-5]];perimeter=orthogonalPerimeter;outlineConnect=0;targetShapes=umlLifeline;portConstraint=eastwest;newEdgeStyle={&quot;curved&quot;:0,&quot;rounded&quot;:0};" parent="8B-uYey3UF3kqIQ4_H9d-16" vertex="1">
          <mxGeometry x="15" y="342" width="10" height="28" as="geometry" />
        </mxCell>
        <mxCell id="8B-uYey3UF3kqIQ4_H9d-25" value="CContratos" style="text;html=1;align=center;verticalAlign=middle;whiteSpace=wrap;rounded=0;" parent="1" vertex="1">
          <mxGeometry x="302" y="10" width="60" height="30" as="geometry" />
        </mxCell>
        <mxCell id="8B-uYey3UF3kqIQ4_H9d-27" value="" style="shape=umlLifeline;perimeter=lifelinePerimeter;whiteSpace=wrap;html=1;container=1;dropTarget=0;collapsible=0;recursiveResize=0;outlineConnect=0;portConstraint=eastwest;newEdgeStyle={&quot;curved&quot;:0,&quot;rounded&quot;:0};participant=umlEntity;" parent="1" vertex="1">
          <mxGeometry x="458" y="50" width="40" height="410" as="geometry" />
        </mxCell>
        <mxCell id="8B-uYey3UF3kqIQ4_H9d-50" value="" style="html=1;points=[[0,0,0,0,5],[0,1,0,0,-5],[1,0,0,0,5],[1,1,0,0,-5]];perimeter=orthogonalPerimeter;outlineConnect=0;targetShapes=umlLifeline;portConstraint=eastwest;newEdgeStyle={&quot;curved&quot;:0,&quot;rounded&quot;:0};" parent="8B-uYey3UF3kqIQ4_H9d-27" vertex="1">
          <mxGeometry x="15" y="88" width="10" height="40" as="geometry" />
        </mxCell>
        <mxCell id="8B-uYey3UF3kqIQ4_H9d-31" value="Complejo Industrial" style="text;html=1;align=center;verticalAlign=middle;whiteSpace=wrap;rounded=0;" parent="1" vertex="1">
          <mxGeometry x="448" y="10" width="60" height="30" as="geometry" />
        </mxCell>
        <mxCell id="8B-uYey3UF3kqIQ4_H9d-32" value="" style="shape=umlLifeline;perimeter=lifelinePerimeter;whiteSpace=wrap;html=1;container=1;dropTarget=0;collapsible=0;recursiveResize=0;outlineConnect=0;portConstraint=eastwest;newEdgeStyle={&quot;curved&quot;:0,&quot;rounded&quot;:0};participant=umlEntity;" parent="1" vertex="1">
          <mxGeometry x="604" y="50" width="40" height="410" as="geometry" />
        </mxCell>
        <mxCell id="8B-uYey3UF3kqIQ4_H9d-52" value="" style="html=1;points=[[0,0,0,0,5],[0,1,0,0,-5],[1,0,0,0,5],[1,1,0,0,-5]];perimeter=orthogonalPerimeter;outlineConnect=0;targetShapes=umlLifeline;portConstraint=eastwest;newEdgeStyle={&quot;curved&quot;:0,&quot;rounded&quot;:0};" parent="8B-uYey3UF3kqIQ4_H9d-32" vertex="1">
          <mxGeometry x="15" y="149" width="10" height="40" as="geometry" />
        </mxCell>
        <mxCell id="8B-uYey3UF3kqIQ4_H9d-36" value="Proveedores" style="text;html=1;align=center;verticalAlign=middle;whiteSpace=wrap;rounded=0;" parent="1" vertex="1">
          <mxGeometry x="594" y="10" width="60" height="30" as="geometry" />
        </mxCell>
        <mxCell id="8B-uYey3UF3kqIQ4_H9d-37" value="" style="shape=umlLifeline;perimeter=lifelinePerimeter;whiteSpace=wrap;html=1;container=1;dropTarget=0;collapsible=0;recursiveResize=0;outlineConnect=0;portConstraint=eastwest;newEdgeStyle={&quot;curved&quot;:0,&quot;rounded&quot;:0};participant=umlEntity;" parent="1" vertex="1">
          <mxGeometry x="750" y="50" width="40" height="410" as="geometry" />
        </mxCell>
        <mxCell id="8B-uYey3UF3kqIQ4_H9d-68" value="" style="html=1;points=[[0,0,0,0,5],[0,1,0,0,-5],[1,0,0,0,5],[1,1,0,0,-5]];perimeter=orthogonalPerimeter;outlineConnect=0;targetShapes=umlLifeline;portConstraint=eastwest;newEdgeStyle={&quot;curved&quot;:0,&quot;rounded&quot;:0};" parent="8B-uYey3UF3kqIQ4_H9d-37" vertex="1">
          <mxGeometry x="15" y="350" width="10" height="20" as="geometry" />
        </mxCell>
        <mxCell id="8B-uYey3UF3kqIQ4_H9d-39" value="Contratos" style="text;html=1;align=center;verticalAlign=middle;whiteSpace=wrap;rounded=0;" parent="1" vertex="1">
          <mxGeometry x="740" y="10" width="60" height="30" as="geometry" />
        </mxCell>
        <mxCell id="8B-uYey3UF3kqIQ4_H9d-40" value="AgregarContrato" style="html=1;verticalAlign=bottom;labelBackgroundColor=none;endArrow=open;endFill=0;rounded=0;exitX=1;exitY=1;exitDx=0;exitDy=-5;exitPerimeter=0;" parent="1" source="8B-uYey3UF3kqIQ4_H9d-2" target="8B-uYey3UF3kqIQ4_H9d-41" edge="1">
          <mxGeometry width="160" relative="1" as="geometry">
            <mxPoint x="50" y="120" as="sourcePoint" />
            <mxPoint x="140" y="130" as="targetPoint" />
          </mxGeometry>
        </mxCell>
        <mxCell id="8B-uYey3UF3kqIQ4_H9d-46" value="ListaCI" style="html=1;verticalAlign=bottom;endArrow=open;dashed=1;endSize=8;curved=0;rounded=0;" parent="1" target="8B-uYey3UF3kqIQ4_H9d-48" edge="1">
          <mxGeometry x="0.0074" relative="1" as="geometry">
            <mxPoint x="473" y="173" as="sourcePoint" />
            <mxPoint x="370" y="170" as="targetPoint" />
            <mxPoint as="offset" />
          </mxGeometry>
        </mxCell>
        <mxCell id="8B-uYey3UF3kqIQ4_H9d-47" value="AgregarContrato" style="html=1;verticalAlign=bottom;labelBackgroundColor=none;endArrow=open;endFill=0;rounded=0;exitX=1;exitY=1;exitDx=0;exitDy=-5;exitPerimeter=0;entryX=0;entryY=0;entryDx=0;entryDy=5;entryPerimeter=0;" parent="1" target="8B-uYey3UF3kqIQ4_H9d-48" edge="1">
          <mxGeometry width="160" relative="1" as="geometry">
            <mxPoint x="190" y="135" as="sourcePoint" />
            <mxPoint x="327" y="133" as="targetPoint" />
          </mxGeometry>
        </mxCell>
        <mxCell id="8B-uYey3UF3kqIQ4_H9d-49" value="listarCI" style="html=1;verticalAlign=bottom;labelBackgroundColor=none;endArrow=open;endFill=0;rounded=0;entryX=0;entryY=0;entryDx=0;entryDy=5;entryPerimeter=0;" parent="1" source="8B-uYey3UF3kqIQ4_H9d-48" target="8B-uYey3UF3kqIQ4_H9d-50" edge="1">
          <mxGeometry width="160" relative="1" as="geometry">
            <mxPoint x="340" y="145" as="sourcePoint" />
            <mxPoint x="430" y="140" as="targetPoint" />
          </mxGeometry>
        </mxCell>
        <mxCell id="8B-uYey3UF3kqIQ4_H9d-51" value="ListarProveedores" style="html=1;verticalAlign=bottom;labelBackgroundColor=none;endArrow=open;endFill=0;rounded=0;entryX=0;entryY=0;entryDx=0;entryDy=5;entryPerimeter=0;" parent="1" edge="1">
          <mxGeometry width="160" relative="1" as="geometry">
            <mxPoint x="337" y="206" as="sourcePoint" />
            <mxPoint x="619" y="206" as="targetPoint" />
          </mxGeometry>
        </mxCell>
        <mxCell id="8B-uYey3UF3kqIQ4_H9d-54" value="ListaProveedores" style="html=1;verticalAlign=bottom;endArrow=open;dashed=1;endSize=8;curved=0;rounded=0;exitX=0;exitY=1;exitDx=0;exitDy=-5;exitPerimeter=0;" parent="1" source="8B-uYey3UF3kqIQ4_H9d-52" target="8B-uYey3UF3kqIQ4_H9d-48" edge="1">
          <mxGeometry x="0.0074" relative="1" as="geometry">
            <mxPoint x="536" y="240" as="sourcePoint" />
            <mxPoint x="400" y="240" as="targetPoint" />
            <mxPoint as="offset" />
          </mxGeometry>
        </mxCell>
        <mxCell id="8B-uYey3UF3kqIQ4_H9d-55" value="ListaCI" style="html=1;verticalAlign=bottom;endArrow=open;dashed=1;endSize=8;curved=0;rounded=0;" parent="1" edge="1">
          <mxGeometry x="0.0074" relative="1" as="geometry">
            <mxPoint x="326" y="190" as="sourcePoint" />
            <mxPoint x="190" y="190" as="targetPoint" />
            <mxPoint as="offset" />
          </mxGeometry>
        </mxCell>
        <mxCell id="8B-uYey3UF3kqIQ4_H9d-56" value="ListaProveedores" style="html=1;verticalAlign=bottom;endArrow=open;dashed=1;endSize=8;curved=0;rounded=0;exitX=0;exitY=1;exitDx=0;exitDy=-5;exitPerimeter=0;" parent="1" edge="1">
          <mxGeometry x="0.1241" y="-5" relative="1" as="geometry">
            <mxPoint x="327" y="243" as="sourcePoint" />
            <mxPoint x="190" y="243" as="targetPoint" />
            <mxPoint as="offset" />
          </mxGeometry>
        </mxCell>
        <mxCell id="8B-uYey3UF3kqIQ4_H9d-57" value="ListaCI" style="html=1;verticalAlign=bottom;endArrow=open;dashed=1;endSize=8;curved=0;rounded=0;entryX=1;entryY=0;entryDx=0;entryDy=5;entryPerimeter=0;" parent="1" source="8B-uYey3UF3kqIQ4_H9d-44" target="8B-uYey3UF3kqIQ4_H9d-43" edge="1">
          <mxGeometry x="0.0074" relative="1" as="geometry">
            <mxPoint x="150" y="214" as="sourcePoint" />
            <mxPoint x="80" y="214" as="targetPoint" />
            <mxPoint as="offset" />
          </mxGeometry>
        </mxCell>
        <mxCell id="8B-uYey3UF3kqIQ4_H9d-58" value="ListaProveedores" style="html=1;verticalAlign=bottom;endArrow=open;dashed=1;endSize=8;curved=0;rounded=0;exitX=0;exitY=1;exitDx=0;exitDy=-5;exitPerimeter=0;" parent="1" source="8B-uYey3UF3kqIQ4_H9d-44" target="8B-uYey3UF3kqIQ4_H9d-43" edge="1">
          <mxGeometry x="0.1241" y="-5" relative="1" as="geometry">
            <mxPoint x="160" y="265" as="sourcePoint" />
            <mxPoint x="80" y="270" as="targetPoint" />
            <mxPoint as="offset" />
          </mxGeometry>
        </mxCell>
        <mxCell id="8B-uYey3UF3kqIQ4_H9d-59" value="SeleccionarCI" style="html=1;verticalAlign=bottom;labelBackgroundColor=none;endArrow=open;endFill=0;rounded=0;entryX=-0.2;entryY=0.142;entryDx=0;entryDy=0;entryPerimeter=0;" parent="1" edge="1">
          <mxGeometry x="0.0075" width="160" relative="1" as="geometry">
            <mxPoint x="45" y="290.46000000000004" as="sourcePoint" />
            <mxPoint x="178" y="290.46000000000004" as="targetPoint" />
            <mxPoint as="offset" />
          </mxGeometry>
        </mxCell>
        <mxCell id="8B-uYey3UF3kqIQ4_H9d-61" value="SeleccionarProveedor" style="html=1;verticalAlign=bottom;labelBackgroundColor=none;endArrow=open;endFill=0;rounded=0;entryX=-0.2;entryY=0.142;entryDx=0;entryDy=0;entryPerimeter=0;" parent="1" edge="1">
          <mxGeometry width="160" relative="1" as="geometry">
            <mxPoint x="46" y="315" as="sourcePoint" />
            <mxPoint x="179" y="315" as="targetPoint" />
          </mxGeometry>
        </mxCell>
        <mxCell id="8B-uYey3UF3kqIQ4_H9d-62" value="FechaVigencia" style="html=1;verticalAlign=bottom;labelBackgroundColor=none;endArrow=open;endFill=0;rounded=0;entryX=-0.2;entryY=0.142;entryDx=0;entryDy=0;entryPerimeter=0;" parent="1" edge="1">
          <mxGeometry width="160" relative="1" as="geometry">
            <mxPoint x="46" y="340" as="sourcePoint" />
            <mxPoint x="179" y="340" as="targetPoint" />
          </mxGeometry>
        </mxCell>
        <mxCell id="8B-uYey3UF3kqIQ4_H9d-63" value="Volumenes" style="html=1;verticalAlign=bottom;labelBackgroundColor=none;endArrow=open;endFill=0;rounded=0;entryX=-0.2;entryY=0.142;entryDx=0;entryDy=0;entryPerimeter=0;" parent="1" edge="1">
          <mxGeometry x="0.0075" width="160" relative="1" as="geometry">
            <mxPoint x="45" y="364" as="sourcePoint" />
            <mxPoint x="178" y="364" as="targetPoint" />
            <mxPoint as="offset" />
          </mxGeometry>
        </mxCell>
        <mxCell id="8B-uYey3UF3kqIQ4_H9d-64" value="Precio" style="html=1;verticalAlign=bottom;labelBackgroundColor=none;endArrow=open;endFill=0;rounded=0;entryX=-0.2;entryY=0.142;entryDx=0;entryDy=0;entryPerimeter=0;" parent="1" edge="1">
          <mxGeometry x="0.0075" width="160" relative="1" as="geometry">
            <mxPoint x="45" y="390" as="sourcePoint" />
            <mxPoint x="178" y="390" as="targetPoint" />
            <mxPoint as="offset" />
          </mxGeometry>
        </mxCell>
        <mxCell id="8B-uYey3UF3kqIQ4_H9d-66" value="registrarDatos" style="html=1;verticalAlign=bottom;labelBackgroundColor=none;endArrow=open;endFill=0;rounded=0;exitX=1;exitY=1;exitDx=0;exitDy=-5;exitPerimeter=0;entryX=0;entryY=0;entryDx=0;entryDy=5;entryPerimeter=0;" parent="1" edge="1">
          <mxGeometry width="160" relative="1" as="geometry">
            <mxPoint x="190" y="400" as="sourcePoint" />
            <mxPoint x="327" y="400" as="targetPoint" />
          </mxGeometry>
        </mxCell>
        <mxCell id="8B-uYey3UF3kqIQ4_H9d-67" value="registrarDatos" style="html=1;verticalAlign=bottom;labelBackgroundColor=none;endArrow=open;endFill=0;rounded=0;entryX=0;entryY=0;entryDx=0;entryDy=5;entryPerimeter=0;" parent="1" source="8B-uYey3UF3kqIQ4_H9d-65" target="8B-uYey3UF3kqIQ4_H9d-68" edge="1">
          <mxGeometry width="160" relative="1" as="geometry">
            <mxPoint x="380" y="405" as="sourcePoint" />
            <mxPoint x="475" y="414" as="targetPoint" />
          </mxGeometry>
        </mxCell>
      </root>
    </mxGraphModel>
  </diagram>
</mxfile>
